<?xml version="1.0" encoding="UTF-8" standalone="no"?>
<svg
   xmlns:dc="http://purl.org/dc/elements/1.1/"
   xmlns:cc="http://creativecommons.org/ns#"
   xmlns:rdf="http://www.w3.org/1999/02/22-rdf-syntax-ns#"
   xmlns:svg="http://www.w3.org/2000/svg"
   xmlns="http://www.w3.org/2000/svg"
   xmlns:xlink="http://www.w3.org/1999/xlink"
   xmlns:sodipodi="http://sodipodi.sourceforge.net/DTD/sodipodi-0.dtd"
   xmlns:inkscape="http://www.inkscape.org/namespaces/inkscape"
   version="1.1"
   id="Layer_1"
   x="0px"
   y="0px"
   viewBox="0 0 400 400"
   xml:space="preserve"
   inkscape:version="0.48.4 r"
   width="100%"
   height="100%"
   sodipodi:docname="lockHollow.svg"><sodipodi:namedview
     pagecolor="#ffffff"
     bordercolor="#666666"
     borderopacity="1"
     objecttolerance="10"
     gridtolerance="10"
     guidetolerance="10"
     inkscape:pageopacity="0"
     inkscape:pageshadow="2"
     inkscape:window-width="1920"
     inkscape:window-height="1027"
     id="namedview3052"
     showgrid="false"
     inkscape:zoom="1.7067471"
     inkscape:cx="164.96563"
     inkscape:cy="164.75794"
     inkscape:window-x="-8"
     inkscape:window-y="-8"
     inkscape:window-maximized="1"
     inkscape:current-layer="Layer_1" /><metadata
     id="metadata3457"><rdf:RDF><cc:Work
         rdf:about=""><dc:format>image/svg+xml</dc:format><dc:type
           rdf:resource="http://purl.org/dc/dcmitype/StillImage" /><dc:title></dc:title></cc:Work></rdf:RDF></metadata><defs
     id="defs3455"><defs
       id="defs3441"><rect
         height="391.10001"
         width="391.10001"
         id="SVGID_1_"
         x="0"
         y="0" /></defs><clipPath
       id="SVGID_2_"><use
         id="use3445"
         style="overflow:visible"
         xlink:href="#SVGID_1_"
         x="0"
         y="0"
         width="391.10001"
         height="391.10001" /></clipPath></defs><style
     type="text/css"
     id="style3437">
	.st0{clip-path:url(#SVGID_2_);fill:#0394A6;}
	.st1{clip-path:url(#SVGID_2_);fill:#FFFFFF;}
</style><path
     sodipodi:type="arc"
     style="color:#000000;fill:#61dafb;fill-opacity:1;stroke:none;stroke-width:10;marker:none;visibility:visible;display:inline;overflow:visible;enable-background:accumulate"
     id="path3153"
     sodipodi:cx="125.09176"
     sodipodi:cy="92.104362"
     sodipodi:rx="32.517998"
     sodipodi:ry="31.346178"
     d="m 157.60976,92.104362 a 32.517998,31.346178 0 1 1 -65.035999,0 32.517998,31.346178 0 1 1 65.035999,0 z"
     transform="matrix(6.1504402,0,0,6.3803632,-569.36938,-387.65928)" /><path
     sodipodi:type="arc"
     style="color:#000000;fill:#ffffff;fill-opacity:1;stroke:none;stroke-width:10;marker:none;visibility:visible;display:inline;overflow:visible;enable-background:accumulate"
     id="path3929"
     sodipodi:cx="202.43187"
     sodipodi:cy="160.65581"
     sodipodi:rx="90.523079"
     sodipodi:ry="92.866714"
     d="m 292.95495,160.65581 a 90.523079,92.866714 0 1 1 -181.04616,0 90.523079,92.866714 0 1 1 181.04616,0 z"
     transform="matrix(2.0436777,0,0,1.9921023,-213.70551,-120.04281)" /><path
     sodipodi:type="arc"
     style="color:#000000;fill:#61dafb;fill-opacity:1;stroke:none;stroke-width:10;marker:none;visibility:visible;display:inline;overflow:visible;enable-background:accumulate"
     id="path3153-2"
     sodipodi:cx="125.09176"
     sodipodi:cy="92.104362"
     sodipodi:rx="32.517998"
     sodipodi:ry="31.346178"
     d="m 157.60976,92.104362 a 32.517998,31.346178 0 1 1 -65.035999,0 32.517998,31.346178 0 1 1 65.035999,0 z"
     transform="matrix(5.2278742,0,0,5.4233087,-453.96397,-299.51039)" /><path
     style="fill:#ffffff;fill-rule:evenodd"
     inkscape:connector-curvature="0"
     d="m 99.775,115.732 v 147.16 l 24.574,-68.52 a 4.5003999,4.5003999 0 0 1 4.237,-2.98 h 57.39199 L 209.835,166.479 a 4.5003999,4.5003999 0 0 1 3.25,-1.389 h 87.31 V 132.994 H 177.73499 a 4.5003999,4.5003999 0 0 1 -4.497,-4.502 l 0.002,-12.756 H 99.775 z m 115.23,58.356 -23.86001,24.91 a 4.5003999,4.5003999 0 0 1 -3.247,1.39 H 131.752 l -30.082,83.88 H 300.39 V 174.088 H 215 z"
     id="path3118" /><path
     style="fill:#ffffff;fill-rule:evenodd"
     inkscape:connector-curvature="0"
     d="m 215.005,174.088 h 121.22 l -33.049,110.18 h -201.51 l 30.082,-83.877 h 56.14599 a 4.5003999,4.5003999 0 0 0 3.25,-1.3867 l 23.85901,-24.914 z"
     id="path3120" /></svg>