<?xml version="1.0" encoding="UTF-8" standalone="no"?>
<!-- Created with Inkscape (http://www.inkscape.org/) -->

<svg
   xmlns:dc="http://purl.org/dc/elements/1.1/"
   xmlns:cc="http://creativecommons.org/ns#"
   xmlns:rdf="http://www.w3.org/1999/02/22-rdf-syntax-ns#"
   xmlns:svg="http://www.w3.org/2000/svg"
   xmlns="http://www.w3.org/2000/svg"
   xmlns:xlink="http://www.w3.org/1999/xlink"
   version="1.1"
   width="100%"
   height="100%"
   viewBox="0 0 400 400"
   id="Layer_1"
   xml:space="preserve"><metadata
     id="metadata3457"><rdf:RDF><cc:Work
         rdf:about=""><dc:format>image/svg+xml</dc:format><dc:type
           rdf:resource="http://purl.org/dc/dcmitype/StillImage" /><dc:title></dc:title></cc:Work></rdf:RDF></metadata><defs
     id="defs3455"><defs
       id="defs3441"><rect
         width="391.10001"
         height="391.10001"
         x="0"
         y="0"
         id="SVGID_1_" /></defs><clipPath
       id="SVGID_2_"><use
         id="use3445"
         style="overflow:visible"
         x="0"
         y="0"
         width="391.10001"
         height="391.10001"
         xlink:href="#SVGID_1_" /></clipPath></defs><style
     type="text/css"
     id="style3437" /><path
     d="M 200,0 C 89.543047,0 0,89.543047 0,200 0,310.45695 89.543047,400 200,400 310.45695,400 400,310.45695 400,200 400,89.543047 310.45695,0 200,0 z m -117.904412,100.88235 86.433822,0 0,15 a 5.2945881,5.2945881 0 0 0 5.29412,5.29412 l 144.30147,0 0,37.75735 -102.72059,0 a 5.2945881,5.2945881 0 0 0 -3.82353,1.61765 l -28.08823,29.33824 -67.5,0 a 5.2945881,5.2945881 0 0 0 -5,3.49264 l -28.897062,80.625 0,-173.125 z m 135.551472,68.63971 100.44118,0 42.16911,0 -38.86029,129.63235 -3.30882,0 -233.786769,0 35.404409,-98.67647 0,-0.0367 66.06618,0 a 5.2945881,5.2945881 0 0 0 1.43382,-0.18383 5.2945881,5.2945881 0 0 0 1.9853,-1.06617 5.2945881,5.2945881 0 0 0 0.36764,-0.33089 5.2945881,5.2945881 0 0 0 0.0367,-0.0367 l 28.05153,-29.30159 z"
     id="path3153-2"
     style="color:#000000;fill:#61dafb;fill-opacity:1;stroke:none;stroke-width:10;marker:none;visibility:visible;display:inline;overflow:visible;enable-background:accumulate" /></svg>