<?xml version="1.0" encoding="UTF-8" standalone="no"?>
<svg
   xmlns:dc="http://purl.org/dc/elements/1.1/"
   xmlns:cc="http://creativecommons.org/ns#"
   xmlns:rdf="http://www.w3.org/1999/02/22-rdf-syntax-ns#"
   xmlns:svg="http://www.w3.org/2000/svg"
   xmlns="http://www.w3.org/2000/svg"
   xmlns:xlink="http://www.w3.org/1999/xlink"
   version="1.1"
   id="Layer_1"
   x="0px"
   y="0px"
   viewBox="0 0 391.1 391.1"
   style="enable-background:new 0 0 391.1 391.1;"
   xml:space="preserve"><metadata
     id="metadata3457"><rdf:RDF><cc:Work
         rdf:about=""><dc:format>image/svg+xml</dc:format><dc:type
           rdf:resource="http://purl.org/dc/dcmitype/StillImage" /><dc:title></dc:title></cc:Work></rdf:RDF></metadata><defs
     id="defs3455"><defs
       id="defs3441"><rect
         height="391.1"
         width="391.1"
         id="SVGID_1_" /></defs><clipPath
       id="SVGID_2_"><use
         id="use3445"
         style="overflow:visible;"
         xlink:href="#SVGID_1_" /></clipPath></defs><style
     type="text/css"
     id="style3437">
	.st0{clip-path:url(#SVGID_2_);fill:#0394A6;}
	.st1{clip-path:url(#SVGID_2_);fill:#FFFFFF;}
</style><path
     id="path4882"
     d="M 195.55078 0 A 195.55 195.55 0 0 0 0 195.55078 A 195.55 195.55 0 0 0 195.55078 391.09961 A 195.55 195.55 0 0 0 391.09961 195.55078 A 195.55 195.55 0 0 0 195.55078 0 z M 195.55078 13.396484 C 296.10628 13.396484 377.70508 94.995284 377.70508 195.55078 C 377.70508 296.10628 296.10628 377.70508 195.55078 377.70508 C 94.995284 377.70508 13.396484 296.10628 13.396484 195.55078 C 13.396484 94.995284 94.995284 13.396484 195.55078 13.396484 z M 195.55078 21.072266 C 99.144243 21.072266 21.072266 99.144243 21.072266 195.55078 C 21.072266 291.95732 99.144243 370.02734 195.55078 370.02734 C 291.95732 370.02734 370.02734 291.95732 370.02734 195.55078 C 370.02734 99.144243 291.95732 21.072266 195.55078 21.072266 z M 195.59961 65.099609 L 196.5 65.099609 C 228 65.099609 253.59961 90.699217 253.59961 122.19922 L 253.59961 160.09961 C 246.99961 154.69961 239.70078 150.3 231.80078 147 C 229.70078 146 227.50078 145.20039 225.30078 144.40039 L 225.30078 122.09961 C 225.30078 106.19961 212.4 93.300781 196.5 93.300781 L 195.59961 93.300781 C 179.69961 93.300781 166.80078 106.19961 166.80078 122.09961 L 166.80078 144.40039 C 164.60078 145.20039 162.40078 146.00039 160.30078 146.90039 C 152.40081 150.30039 145.1 154.6 138.5 160 L 138.5 122.19922 C 138.5 90.699217 164.09961 65.099609 195.59961 65.099609 z M 196.09961 151 C 206.39961 151 216.30078 153 225.30078 156.5 C 236.00078 160.7 245.69961 167.20078 253.59961 175.30078 C 267.69961 189.80078 276.40039 209.60039 276.40039 231.40039 C 276.40039 275.80039 240.39961 311.69922 196.09961 311.69922 C 151.79961 311.69922 115.80078 275.70039 115.80078 231.40039 C 115.80078 209.60039 124.49961 189.80078 138.59961 175.30078 C 146.49961 167.20078 156.10039 160.7 166.90039 156.5 C 175.90039 152.9 185.79961 151 196.09961 151 z M 195.69922 195.09961 C 184.69922 195.29961 175.8 204.19922 175.5 215.19922 C 175.4 216.59922 175.50078 217.90078 175.80078 219.30078 C 176.80078 225.20078 180.29922 230.20078 185.19922 233.30078 C 187.19922 234.60078 188.19922 237.00078 187.69922 239.30078 L 181.5 268.5 C 181.2 270.3 182.50078 271.90039 184.30078 271.90039 L 208 271.90039 C 209.8 271.90039 211.20078 270.3 210.80078 268.5 L 204.69922 239.30078 C 204.19922 237.00078 205.19922 234.60078 207.19922 233.30078 C 212.09922 230.20078 215.59961 225.20078 216.59961 219.30078 C 216.79961 218.20078 216.90039 217.00078 216.90039 215.80078 C 216.90039 204.20078 207.29922 194.79961 195.69922 195.09961 z "
     style="fill:#61dafb;fill-opacity:1" /></svg>