<?xml version="1.0" encoding="UTF-8" standalone="no"?>
<svg
   xmlns:dc="http://purl.org/dc/elements/1.1/"
   xmlns:cc="http://creativecommons.org/ns#"
   xmlns:rdf="http://www.w3.org/1999/02/22-rdf-syntax-ns#"
   xmlns:svg="http://www.w3.org/2000/svg"
   xmlns="http://www.w3.org/2000/svg"
   id="svg3991"
   version="1.1"
   xml:space="preserve"
   width="320"
   height="320"
   viewBox="0 0 320 320"><metadata
     id="metadata3997"><rdf:RDF><cc:Work
         rdf:about=""><dc:format>image/svg+xml</dc:format><dc:type
           rdf:resource="http://purl.org/dc/dcmitype/StillImage" /><dc:title></dc:title></cc:Work></rdf:RDF></metadata><defs
     id="defs3995"><clipPath
       clipPathUnits="userSpaceOnUse"
       id="clipPath4005"><path
         d="M 0,256 256,256 256,0 0,0 0,256 Z"
         id="path4007" /></clipPath></defs><g
     transform="matrix(1.25,0,0,-1.25,241.61637,314.377)"
     id="g4009"><path
       id="path4011"
       style="fill:#543224;fill-opacity:1;fill-rule:nonzero;stroke:none"
       d="M 0,0 C -4.898,-0.001 -10.01,1.398 -15.192,4.16 L -65.098,30.747 -115.002,4.16 C -120.186,1.4 -125.297,0 -130.194,0 c -6.873,0 -12.998,2.764 -17.245,7.786 -3.47,4.102 -7.184,11.5 -5.175,23.451 l 9.457,56.224 -40.116,38.783 c -8.466,8.185 -11.671,18.084 -8.792,27.16 2.878,9.074 11.202,15.318 22.836,17.126 l 55.889,8.695 24.975,49.906 c 5.263,10.514 13.743,16.545 23.267,16.545 9.524,0 18.005,-6.029 23.267,-16.543 l 24.977,-49.908 55.888,-8.695 c 11.634,-1.808 19.957,-8.052 22.835,-17.126 2.879,-9.076 -0.326,-18.975 -8.79,-27.159 L 12.961,87.461 22.418,31.237 C 24.427,19.286 20.713,11.889 17.244,7.787 12.997,2.766 6.873,0 0,0" /></g><path
     d="m 173.17762,36.04525 35.39,70.71375 79.065,12.3 c 15.77,2.45375 19.25125,13.435 7.77875,24.52875 l -56.98,55.085 13.3975,79.6525 c 2.645,15.73875 -6.62625,22.415 -20.7125,14.91125 l -70.8725,-37.75625 -70.8725,37.75625 c -14.085,7.50375 -23.3575,0.8275 -20.71125,-14.91125 l 13.3975,-79.6525 -56.98,-55.085 C 13.60387,132.494 17.08637,121.51275 32.85512,119.059 l 79.0675,-12.3 35.3875,-70.7125 c 7.14375,-14.27125 18.725,-14.27125 25.8675,-0.0012"
     style="fill:#808080;fill-opacity:1;fill-rule:nonzero;stroke:none"
     id="path4015" /><g
     transform="matrix(1.25,0,0,-1.25,238.431,198.67337)"
     id="g4017"><path
       id="path4019"
       style="fill:#ffdd15;fill-opacity:1;fill-rule:nonzero;stroke:none"
       d="M 0,0 10.718,-63.722" /></g><path
     d="m 226.79912,194.846 49.915,-48.25625 c -79.01125,-6.7925 -147.21,8.74125 -201.12375,30.76 l 18.09875,17.49625 -14.3425,85.2775 c -0.48125,2.86375 2.33875,4.93 4.92875,3.54875 l 75.96875,-40.47 75.96875,40.47 c 2.59,1.38125 5.41,-0.6825 4.92875,-3.54875 l -14.3425,-85.2775 z"
     style="fill:#767676;fill-opacity:1;fill-rule:nonzero;stroke:none"
     id="path4023" /><path
     d="m 75.590375,177.34913 18.09875,17.49625 -4.9825,29.62125 c 32.973745,-14.48625 86.609995,-30.09875 144.697495,-36.005 l 43.31,-41.87125 c -79.01125,-6.7925 -147.21,8.74 -201.123745,30.75875"
     style="fill:#8a8a8a;fill-opacity:1;fill-rule:nonzero;stroke:none"
     id="path4027" /><path
     d="m 75.5895,177.3495 c 53.91375,-22.01875 122.1125,-37.55125 201.125,-30.76 l 11.16375,-10.7925 c 2.19375,-2.12125 1.10375,-5.56125 -1.91125,-6.03 l -84.58875,-13.15875 -4.37875,-8.75 c -52.38625,4.81 -97.665,19.80875 -148.0775,43.71 l 26.6675,25.78125 z"
     style="fill:#808080;fill-opacity:1;fill-rule:nonzero;stroke:none"
     id="path4031" /><path
     d="m 87.828125,284.11113 c 0,4.24 -3.69,7.67625 -8.24,7.67625 -4.55125,0 -8.24,-3.43625 -8.24,-7.67625 0,-4.24 3.68875,-7.67625 8.24,-7.67625 4.55,0 8.24,3.43625 8.24,7.67625"
     style="fill:#808080;fill-opacity:1;fill-rule:nonzero;stroke:none"
     id="path4035" /><g
     transform="matrix(1.25,0,0,-1.25,157.99537,33.9745)"
     id="g4037"><path
       id="path4039"
       style="fill:#ffffff;fill-opacity:1;fill-rule:nonzero;stroke:none"
       d="m 0,0 c -3.077,0 -21.635,-42.157 -31.547,-56.979 -0.392,0.055 -0.79,0.092 -1.198,0.092 -4.228,0 -7.702,-3.002 -8.103,-6.844 -13.891,-3.875 -47.008,-7.593 -62.574,-10.799 0.237,-5.002 47.003,-0.273 65.736,4.038 1.371,-0.979 3.08,-1.566 4.941,-1.566 4.497,0 8.143,3.395 8.143,7.585 0,1.027 -0.222,2.006 -0.619,2.899 C -13.845,-43.942 4.792,0.397 0,0" /></g></svg>