<?xml version="1.0" encoding="UTF-8"?>
<!-- Generator: Adobe Illustrator 20.0.0, SVG Export Plug-In . SVG Version: 6.00 Build 0)  -->
<svg version="1.1" id="Layer_1" xmlns="http://www.w3.org/2000/svg" xmlns:xlink="http://www.w3.org/1999/xlink" x="0px" y="0px" viewBox="0 0 391.1 391.1" style="enable-background:new 0 0 391.1 391.1;" xml:space="preserve">
<style type="text/css">
	.st0{clip-path:url(#SVGID_2_);fill:#0394A6;}
	.st1{clip-path:url(#SVGID_2_);fill:#FFFFFF;}
</style>
<g>
	<defs>
		<rect id="SVGID_1_" width="391.1" height="391.1"/>
	</defs>
	<clipPath id="SVGID_2_">
		<use xlink:href="#SVGID_1_" style="overflow:visible;"/>
	</clipPath>
	<path class="st0" d="M195.6,391.1c108,0,195.6-87.6,195.6-195.6C391.1,87.6,303.5,0,195.6,0S0,87.6,0,195.5   C0,303.6,87.6,391.1,195.6,391.1"/>
	<path class="st1" d="M231.8,147c7.9,3.3,15.2,7.7,21.8,13.1v-37.9c0-31.5-25.6-57.1-57.1-57.1h-0.9c-31.5,0-57.1,25.6-57.1,57.1   V160c6.6-5.4,13.9-9.7,21.8-13.1c2.1-0.9,4.3-1.7,6.5-2.5v-22.3c0-15.9,12.9-28.8,28.8-28.8h0.9c15.9,0,28.8,12.9,28.8,28.8v22.3   C227.5,145.2,229.7,146,231.8,147"/>
	<path class="st1" d="M175.5,215.2c0.3-11,9.2-19.9,20.2-20.1c11.6-0.3,21.2,9.1,21.2,20.7c0,1.2-0.1,2.4-0.3,3.5   c-1,5.9-4.5,10.9-9.4,14c-2,1.3-3,3.7-2.5,6l6.1,29.2c0.4,1.8-1,3.4-2.8,3.4h-23.7c-1.8,0-3.1-1.6-2.8-3.4l6.2-29.2   c0.5-2.3-0.5-4.7-2.5-6c-4.9-3.1-8.4-8.1-9.4-14C175.5,217.9,175.4,216.6,175.5,215.2 M115.8,231.4c0,44.3,36,80.3,80.3,80.3   s80.3-35.9,80.3-80.3c0-21.8-8.7-41.6-22.8-56.1c-7.9-8.1-17.6-14.6-28.3-18.8c-9-3.5-18.9-5.5-29.2-5.5c-10.3,0-20.2,1.9-29.2,5.5   c-10.8,4.2-20.4,10.7-28.3,18.8C124.5,189.8,115.8,209.6,115.8,231.4"/>
</g>
</svg>